<?xml version="1.0" encoding="UTF-8" standalone="no"?>
<!-- Svg Vector Icons : http://www.onlinewebfonts.com/icon -->

<svg
   xmlns:dc="http://purl.org/dc/elements/1.1/"
   xmlns:cc="http://creativecommons.org/ns#"
   xmlns:rdf="http://www.w3.org/1999/02/22-rdf-syntax-ns#"
   xmlns:svg="http://www.w3.org/2000/svg"
   xmlns="http://www.w3.org/2000/svg"
   xmlns:sodipodi="http://sodipodi.sourceforge.net/DTD/sodipodi-0.dtd"
   xmlns:inkscape="http://www.inkscape.org/namespaces/inkscape"
   version="1.1"
   x="0px"
   y="0px"
   viewBox="0 0 1000 1000"
   enable-background="new 0 0 1000 1000"
   xml:space="preserve"
   id="svg42"
   sodipodi:docname="maillot3.svg"
   inkscape:version="0.92.2 (5c3e80d, 2017-08-06)"><defs
     id="defs46"><inkscape:path-effect
       effect="spiro"
       id="path-effect838"
       is_visible="true" /><inkscape:path-effect
       effect="spiro"
       id="path-effect832"
       is_visible="true" /></defs><sodipodi:namedview
     pagecolor="#ffffff"
     bordercolor="#666666"
     borderopacity="1"
     objecttolerance="10"
     gridtolerance="10"
     guidetolerance="10"
     inkscape:pageopacity="0"
     inkscape:pageshadow="2"
     inkscape:window-width="1920"
     inkscape:window-height="1057"
     id="namedview44"
     showgrid="false"
     inkscape:zoom="0.1668772"
     inkscape:cx="231.44087"
     inkscape:cy="294.48738"
     inkscape:window-x="-8"
     inkscape:window-y="-8"
     inkscape:window-maximized="1"
     inkscape:current-layer="svg42" /><metadata
     id="metadata2"> Svg Vector Icons : http://www.onlinewebfonts.com/icon <rdf:RDF><cc:Work
     rdf:about=""><dc:format>image/svg+xml</dc:format><dc:type
       rdf:resource="http://purl.org/dc/dcmitype/StillImage" /></cc:Work></rdf:RDF></metadata><g
     id="g40"
     transform="matrix(0.9938852,0,0,1.2465613,2.0617374,-107.36477)"><g
       id="g8"><path
         d="M 675.8,346 H 574.5 c -5.6,0 -10.2,4.6 -10.2,10.2 v 36.4 c 0,33.6 27.2,66.1 60.8,66.1 33.6,0 60.8,-32.5 60.8,-66.1 V 356.2 C 686,350.6 681.4,346 675.8,346 Z m -13.1,49.3 c 0,20.7 -16.8,40.5 -37.5,40.5 -20.7,0 -37.5,-19.7 -37.5,-40.5 v -18.6 c 0,-5.6 4.6,-10.2 10.2,-10.2 h 54.7 c 5.6,0 10.2,4.6 10.2,10.2 v 18.6 z"
         id="path4"
         inkscape:connector-curvature="0" /><path
         d="m 973.5,278.67635 c -67.4,-30.7 -134.9,-61.1 -202.2,-92 -42.9,-19.7 -84.1,-46.4 -132.9,-46.4 h -25.9 c -4.8,0 -8.7,4 -10,8.7 -7.7,26.9 -50.4,47.5 -102,47.5 -51.6,0 -94.4,-20.6 -102,-47.5 -1.3,-4.7 -5.2,-8.7 -10,-8.7 h -25.9 c -53.1,0 -102.7,32.4 -149.7,53.3 -51,22.7 -101.5,46.6 -152.4,69.5 -11.3,5.1 -22.6,10.4 -33.9,15.5 -14.1,6.4 -20.4,23 -14,37.1 l 52.2,115.7 c 6.4,14.1 23,20.4 37.1,14 l 136.17966,-65.41083 v 404.8 c 0,66.28376 523.02203,62.93106 523.02203,5.02906 v -405.8 L 898.4,445.47635 c 14.1,6.4 30.7,0.1 37.1,-14 l 52.2,-115.7 c 6.2,-14.2 -0.1,-30.8 -14.2,-37.1 z m -25.3,28.1 c -3.5,7.7 -12.6,11.1 -20.3,7.6 -11.1,-5.1 -21.2,-9.6 -30.5,-13.8 -16.3,-7.4 -30.5,-13.7 -44.3,-19.9 -26.4,-11.8 -51.3,-22.9 -88.2,-39.8 -9,-4.1 -18,-8.6 -26.7,-12.9 -33.2,-16.5 -64.6,-32.1 -99.8,-32.1 h -3.5 c -13.7,38.3 -87.6,56.2 -134.4,56.2 -46.8,0 -120.7,-17.9 -134.4,-56.2 h -3.5 c -37.4,0 -74.4,18.3 -110.2,36.1 -10.9,5.4 -22.3,11 -33.3,16 -28.3,12.6 -57,25.8 -84.7,38.6 -12.1,5.5 -24.3,11.2 -36.7,16.8 -10.3,4.7 -20.7,9.4 -31,14.1 -2,0.9 -4.2,1.4 -6.3,1.4 -5.8,0 -11.4,-3.4 -14,-9 -3.5,-7.7 0,-16.8 7.7,-20.3 22.5,-10.2 45.3,-20.7 67.4,-30.8 27.8,-12.8 56.6,-26 85,-38.7 10.5,-4.7 21,-9.9 32.2,-15.4 38.9,-19.3 79.2,-39.2 123.8,-39.2 h 7.5 c 11.4,0 21.4,8 24.7,19.8 1.6,5.6 11.5,15.1 34.4,23.7 21.2,7.9 47.9,12.7 71.3,12.7 23.5,0 50.1,-4.7 71.3,-12.7 22.8,-8.6 32.8,-18.1 34.4,-23.7 3.4,-11.8 13.3,-19.8 24.7,-19.8 h 7.5 c 42.3,0 78.5,17.9 113.4,35.3 8.5,4.2 17.3,8.6 25.9,12.5 36.7,16.8 61.5,27.9 87.9,39.7 21.8,9.7 44.4,19.8 75,33.8 7.8,3.2 11.2,12.3 7.7,20 z"
         id="path6"
         inkscape:connector-curvature="0"
         sodipodi:nodetypes="ccsscscsscccccccsscccccscccccscscscccccscccccssccsccssccccs" /></g><g
       id="g10" /><g
       id="g12" /><g
       id="g14" /><g
       id="g16" /><g
       id="g18" /><g
       id="g20" /><g
       id="g22" /><g
       id="g24" /><g
       id="g26" /><g
       id="g28" /><g
       id="g30" /><g
       id="g32" /><g
       id="g34" /><g
       id="g36" /><g
       id="g38" /></g><path
     style="fill:#ffffff;fill-opacity:1;stroke:#000000;stroke-width:0.73301566px;stroke-linecap:butt;stroke-linejoin:miter;stroke-opacity:1"
     d="m 270.77131,817.9184 c 3.44056,15.77235 7.31118,13.66937 12.47203,16.47334 11.62091,0.55099 12.72459,-12.54245 12.9021,-17.87532 1.91653,-115.87675 1.72027,-354.89734 1.72027,-363.11421 0,-12.61786 -4.73077,-19.62779 -12.90209,-20.32878 -9.58278,0.18488 -12.83532,7.66001 -13.33217,20.32879 1.91397,118.32802 -0.86014,245.29167 -0.86014,364.51618 z"
     id="path851"
     inkscape:connector-curvature="0"
     sodipodi:nodetypes="ccccccc" /></svg>